<svg width="20" height="16" viewBox="0 0 20 16" fill="none" xmlns="http://www.w3.org/2000/svg">
<path d="M18.043 0.234375C18.2982 0.234375 18.5443 0.307292 18.7812 0.453125C19.0182 0.598958 19.3008 0.963542 19.6289 1.54688C19.2096 2.07552 18.8451 2.63151 18.5352 3.21484C18.2253 3.77995 17.9609 4.40885 17.7422 5.10156C17.5234 5.77604 17.3411 6.51432 17.1953 7.31641C17.0495 8.11849 16.9401 9.0026 16.8672 9.96875C17.1771 9.96875 17.4688 10.0234 17.7422 10.1328C18.0156 10.2422 18.2526 10.3971 18.4531 10.5977C18.6536 10.7799 18.8086 10.9896 18.918 11.2266C19.0456 11.4635 19.1094 11.7005 19.1094 11.9375C19.1094 12.6849 19 13.2956 18.7812 13.7695C18.5625 14.2435 18.2891 14.6172 17.9609 14.8906C17.6328 15.1641 17.2591 15.3555 16.8398 15.4648C16.4388 15.5742 16.0469 15.6289 15.6641 15.6289C14.8984 15.6289 14.2604 15.556 13.75 15.4102C13.2578 15.2643 12.8568 15.0547 12.5469 14.7812C12.2552 14.5078 12.0456 14.1888 11.918 13.8242C11.8086 13.4414 11.7539 13.013 11.7539 12.5391C11.7539 11.4453 11.9089 10.3242 12.2188 9.17578C12.5286 8.00911 12.957 6.88802 13.5039 5.8125C14.069 4.71875 14.7344 3.69792 15.5 2.75C16.2656 1.78385 17.1133 0.945312 18.043 0.234375ZM7.16016 0.234375C7.41536 0.234375 7.66146 0.307292 7.89844 0.453125C8.13542 0.598958 8.41797 0.963542 8.74609 1.54688C8.32682 2.07552 7.96224 2.63151 7.65234 3.21484C7.34245 3.77995 7.07812 4.40885 6.85938 5.10156C6.64062 5.77604 6.45833 6.51432 6.3125 7.31641C6.16667 8.11849 6.05729 9.0026 5.98438 9.96875C6.29427 9.96875 6.58594 10.0234 6.85938 10.1328C7.13281 10.2422 7.36979 10.3971 7.57031 10.5977C7.77083 10.7799 7.92578 10.9896 8.03516 11.2266C8.16276 11.4635 8.22656 11.7005 8.22656 11.9375C8.22656 12.6849 8.11719 13.2956 7.89844 13.7695C7.67969 14.2435 7.40625 14.6172 7.07812 14.8906C6.75 15.1641 6.3763 15.3555 5.95703 15.4648C5.55599 15.5742 5.16406 15.6289 4.78125 15.6289C4.01562 15.6289 3.3776 15.556 2.86719 15.4102C2.375 15.2643 1.97396 15.0547 1.66406 14.7812C1.3724 14.5078 1.16276 14.1888 1.03516 13.8242C0.925781 13.4414 0.871094 13.013 0.871094 12.5391C0.871094 11.4453 1.02604 10.3242 1.33594 9.17578C1.64583 8.00911 2.07422 6.88802 2.62109 5.8125C3.1862 4.71875 3.85156 3.69792 4.61719 2.75C5.38281 1.78385 6.23047 0.945312 7.16016 0.234375Z" fill="#FFFFFF"/>
</svg>
