<svg width="252" height="86" viewBox="0 0 252 86" fill="none" xmlns="http://www.w3.org/2000/svg">
<g clip-path="url(#clip0_1_280)">
<g clip-path="url(#clip1_1_280)">
<path d="M97.0002 83.4142C99.3307 84.8373 102.374 84.1017 103.797 81.7712C105.22 79.4407 104.484 76.3978 102.154 74.9747C99.8232 73.5516 96.7803 74.2872 95.3572 76.6177C93.9341 78.9482 94.6697 81.9911 97.0002 83.4142Z" fill="white" stroke="black" stroke-width="2.69688"/>
<path d="M7.12866 41.4673C11.3683 44.0561 16.9038 42.7179 19.4927 38.4783C22.0815 34.2387 20.7434 28.7032 16.5037 26.1143C12.2641 23.5254 6.72859 24.8636 4.13973 29.1032C1.55087 33.3428 2.88906 38.8784 7.12866 41.4673Z" fill="white" stroke="black" stroke-width="3.70639"/>
<path d="M123.211 16.5011C124.89 12.1117 129.81 9.91476 134.2 11.5941C138.589 13.2734 140.786 18.1931 139.107 22.5825L136.245 30.0609C134.566 34.4503 129.646 36.6473 125.257 34.9679C120.868 33.2886 118.671 28.3689 120.35 23.9796L123.211 16.5011Z" fill="#1EC62E" stroke="black" stroke-width="2.75846"/>
<path d="M125.734 24.9674C122.558 21.7478 122.593 16.5628 125.813 13.3865C129.032 10.2101 134.217 10.2452 137.394 13.4648C140.57 16.6844 140.535 21.8694 137.315 25.0457C134.096 28.2221 128.911 28.187 125.734 24.9674Z" fill="white" stroke="black" stroke-width="2.58605"/>
<path d="M237.726 48.1223C241.353 46.4828 245.623 48.0944 247.262 51.7219C248.902 55.3494 247.29 59.6191 243.663 61.2586L238.25 63.7049C234.623 65.3444 230.353 63.7328 228.713 60.1053C227.074 56.4778 228.686 52.2081 232.313 50.5686L237.726 48.1223Z" fill="#AB2638" stroke="black" stroke-width="2.62174"/>
<path d="M234.143 54.4206C234.152 50.502 237.336 47.3327 241.254 47.3415C245.173 47.3504 248.342 50.5342 248.333 54.4527C248.324 58.3713 245.14 61.5406 241.222 61.5318C237.303 61.5229 234.134 58.3391 234.143 54.4206Z" fill="white" stroke="black" stroke-width="2.62174"/>
</g>
</g>
<defs>
<clipPath id="clip0_1_280">
<rect width="252" height="85" fill="white" transform="translate(0 0.490234)"/>
</clipPath>
<clipPath id="clip1_1_280">
<rect width="252" height="85" fill="white" transform="translate(0 0.490234)"/>
</clipPath>
</defs>
</svg>
