<svg width="350" height="142" viewBox="0 0 350 142" fill="none" xmlns="http://www.w3.org/2000/svg">
<g clip-path="url(#clip0_1_156)">
<g clip-path="url(#clip1_1_156)">
<path d="M4.26569 34.3073C6.47498 35.6564 9.35961 34.959 10.7087 32.7497C12.0578 30.5404 11.3604 27.6558 9.15113 26.3067C6.94183 24.9577 4.05721 25.655 2.70813 27.8643C1.35905 30.0736 2.0564 32.9582 4.26569 34.3073Z" fill="white" stroke="#111111" stroke-width="2.23196"/>
<path d="M206.383 138.924C209.447 140.795 213.447 139.828 215.318 136.764C217.188 133.7 216.221 129.7 213.158 127.83C210.094 125.959 206.094 126.926 204.223 129.989C202.352 133.053 203.319 137.053 206.383 138.924Z" fill="white" stroke="#111111" stroke-width="2.67835"/>
<path d="M178.282 15.1823L178.282 15.1823C175.704 11.3798 170.531 10.3874 166.729 12.9656L160.25 17.3583C156.448 19.9365 155.455 25.109 158.034 28.9115C160.612 32.7139 165.784 33.7063 169.587 31.1281L176.065 26.7355C179.868 24.1573 180.86 18.9847 178.282 15.1823Z" fill="#202054" stroke="#111111" stroke-width="2.69649"/>
<path d="M167.444 26.2264C171.217 28.5305 176.144 27.3395 178.448 23.5662C180.752 19.7929 179.561 14.8662 175.787 12.5621C172.014 10.258 167.087 11.449 164.783 15.2223C162.479 18.9955 163.67 23.9222 167.444 26.2264Z" fill="white" stroke="#111111" stroke-width="2.52796"/>
<path d="M328.077 83.9161L328.077 83.9161C329.896 81.2346 333.543 80.5347 336.225 82.3529L340.793 85.4506C343.475 87.2688 344.175 90.9165 342.357 93.598L342.357 93.5981C340.538 96.2796 336.891 96.9794 334.209 95.1613L329.641 92.0635C326.959 90.2453 326.259 86.5976 328.077 83.9161Z" fill="#AB2638" stroke="#111111" stroke-width="1.90159"/>
<path d="M335.72 91.7045C333.059 93.3294 329.585 92.4894 327.96 89.8285C326.335 87.1675 327.175 83.6932 329.836 82.0683C332.497 80.4434 335.971 81.2833 337.596 83.9443C339.221 86.6053 338.381 90.0796 335.72 91.7045Z" fill="white" stroke="#111111" stroke-width="1.78274"/>
</g>
</g>
<defs>
<clipPath id="clip0_1_156">
<rect width="350" height="141.06" fill="white" transform="translate(3.05176e-05 0.400146)"/>
</clipPath>
<clipPath id="clip1_1_156">
<rect width="349.972" height="141.06" fill="white" transform="translate(0.0142212 0.400146)"/>
</clipPath>
</defs>
</svg>
