<svg width="251" height="93" viewBox="0 0 251 93" fill="none" xmlns="http://www.w3.org/2000/svg">
<g clip-path="url(#clip0_1_273)">
<g clip-path="url(#clip1_1_273)">
<path d="M240.642 45.0228C243.232 46.6046 246.615 45.787 248.196 43.1965C249.778 40.6061 248.961 37.2238 246.37 35.642C243.78 34.0602 240.397 34.8778 238.816 37.4683C237.234 40.0587 238.051 43.441 240.642 45.0228Z" fill="white" stroke="black" stroke-width="2.99769"/>
<path d="M112.419 89.7074C115.009 91.2892 118.392 90.4716 119.973 87.8811C121.555 85.2907 120.738 81.9084 118.147 80.3265C115.557 78.7447 112.174 79.5624 110.593 82.1528C109.011 84.7433 109.828 88.1256 112.419 89.7074Z" fill="white" stroke="black" stroke-width="2.99769"/>
<path d="M7.09315 37.8424C11.3029 40.4131 16.7996 39.0843 19.3702 34.8745C21.9409 30.6647 20.6121 25.1681 16.4023 22.5974C12.1925 20.0268 6.69589 21.3556 4.12524 25.5654C1.55459 29.7751 2.88337 35.2718 7.09315 37.8424Z" fill="white" stroke="black" stroke-width="3.68032"/>
<path d="M155.666 32.6447C150.934 29.4363 149.699 22.9996 152.908 18.2678C156.116 13.5361 162.553 12.3011 167.284 15.5094L173.667 19.8368C178.398 23.0451 179.633 29.4819 176.425 34.2136C173.217 38.9454 166.78 40.1804 162.048 36.972L155.666 32.6447Z" fill="#F0B73F" stroke="black" stroke-width="3.35554"/>
<path d="M166.395 32.0115C161.699 34.8787 155.568 33.3966 152.701 28.7011C149.834 24.0056 151.316 17.8748 156.011 15.0075C160.707 12.1403 166.838 13.6224 169.705 18.3179C172.572 23.0134 171.09 29.1442 166.395 32.0115Z" fill="white" stroke="black" stroke-width="3.14581"/>
</g>
</g>
<defs>
<clipPath id="clip0_1_273">
<rect width="251" height="92" fill="white" transform="translate(3.05176e-05 0.490234)"/>
</clipPath>
<clipPath id="clip1_1_273">
<rect width="251" height="92" fill="white" transform="translate(3.05176e-05 0.490234)"/>
</clipPath>
</defs>
</svg>
