<svg width="78" height="31" viewBox="0 0 78 31" fill="none" xmlns="http://www.w3.org/2000/svg">
<g clip-path="url(#clip0_1_291)">
<g clip-path="url(#clip1_1_291)">
<path d="M14.8884 30.258C6.68156 30.258 0.00457764 23.581 0.00457764 15.3741C0.00457764 7.16721 6.68156 0.490234 14.8884 0.490234C23.0954 0.490234 29.7724 7.16721 29.7724 15.3741C29.7724 23.581 23.0954 30.258 14.8884 30.258ZM14.8884 2.34099C7.70221 2.34099 1.85534 8.18787 1.85534 15.3741C1.85534 22.5604 7.70221 28.4073 14.8884 28.4073C22.0747 28.4073 27.9216 22.5604 27.9216 15.3741C27.9216 8.18787 22.0747 2.34099 14.8884 2.34099Z" fill="white"/>
<path d="M21.9733 18.6557H25.5874L24.8338 17.6518L18.8603 9.68644L18.1495 8.74064L17.3886 7.72656L16.7403 6.86227H16.7069H15.409L14.0079 6.85791L5.88754 17.6518L5.13167 18.6557L4.21793 19.8707L4.18883 19.9092H8.46944L6.84567 22.0801H8.36324L10.019 19.8685L10.0241 19.8612L10.9284 18.6536L11.6799 17.6496L14.9609 13.2708L15.7175 14.274L18.2637 17.6518H13.2527L12.5202 18.6557L11.6377 19.8663L13.4186 19.8707H13.4659L19.9406 19.886L21.6204 22.1128L24.649 22.1193L22.927 19.8925L21.9733 18.6557ZM17.1077 12.3644L16.3606 11.3975L15.5887 10.3972L14.1963 12.2581L10.1594 17.6518L9.43192 18.6245H7.86125L8.59457 17.6518L13.3233 11.3706L14.7099 9.52347L16.058 7.72507L16.7214 8.6126L17.4809 9.63117L18.2005 10.5921L23.4792 17.6547H21.1948L17.1077 12.3644Z" fill="white"/>
<path d="M38.148 1.8042H40.0583L45.4051 14.2145H42.8816L41.7204 11.3764H36.3426L35.2197 14.216H32.748L38.148 1.8042ZM40.955 9.48678L39.0447 4.43844L37.096 9.48237L40.955 9.48678Z" fill="white"/>
<path d="M48.4205 9.69375L45.51 5.80225H48.0733L49.7561 8.32565L51.5792 5.80225H53.983L51.102 9.69375L54.4853 14.2161H51.9264L49.7354 11.2007L47.5193 14.2161H45.0372L48.4205 9.69375Z" fill="white"/>
<path d="M55.0463 2.94502C55.0454 2.7794 55.0784 2.61534 55.1431 2.4629C55.208 2.31047 55.3032 2.17288 55.423 2.05857C55.5483 1.93391 55.6977 1.83619 55.8621 1.7714C56.0265 1.70661 56.2023 1.67613 56.3789 1.68183C56.7375 1.67152 57.086 1.80076 57.3511 2.04232C57.4754 2.15753 57.5746 2.29717 57.6424 2.45251C57.7103 2.60785 57.7452 2.77552 57.7452 2.94502C57.7452 3.11452 57.7103 3.28219 57.6424 3.43753C57.5746 3.59286 57.4754 3.73251 57.3511 3.84772C57.0854 4.08821 56.7371 4.21682 56.3789 4.20674C56.2023 4.21243 56.0265 4.18195 55.8621 4.11716C55.6977 4.05238 55.5483 3.95465 55.423 3.82999C55.3032 3.71602 55.2079 3.57869 55.1431 3.4265C55.0783 3.27429 55.0453 3.11044 55.0463 2.94502ZM55.3418 5.80235H57.4441V14.2236H55.3448L55.3418 5.80235Z" fill="white"/>
<path d="M64.7756 13.0591H64.7239C64.4483 13.5127 64.0455 13.8754 63.5655 14.1021C63.0813 14.3215 62.5548 14.432 62.0232 14.4257C61.6409 14.4264 61.2605 14.3737 60.893 14.269C60.5398 14.1707 60.2071 14.0101 59.9104 13.7948C59.625 13.5856 59.389 13.3163 59.219 13.0059C59.0375 12.6669 58.9469 12.2867 58.956 11.9023C58.9441 11.4998 59.0281 11.1001 59.2013 10.7366C59.3584 10.4226 59.5829 10.1471 59.8587 9.9299C60.147 9.70637 60.4698 9.53174 60.8146 9.41279C61.1819 9.28109 61.5601 9.18221 61.9448 9.1173C62.3361 9.05355 62.7308 9.01266 63.1268 8.99469C63.5208 8.97699 63.8945 8.9681 64.2481 8.9681H64.7741V8.74057C64.7741 8.21464 64.5929 7.82062 64.2304 7.55864C63.8233 7.28208 63.3379 7.14376 62.8461 7.16417C62.4195 7.16133 61.9965 7.24163 61.6006 7.40055C61.2306 7.54928 60.8917 7.7663 60.6019 8.04028L59.4982 6.93665C59.9532 6.4651 60.5153 6.11033 61.1367 5.90246C61.7606 5.6916 62.415 5.58479 63.0736 5.58629C63.5839 5.57437 64.0929 5.64267 64.5821 5.78869C64.9482 5.901 65.2921 6.07596 65.5985 6.30579C65.855 6.5013 66.067 6.74907 66.2205 7.03268C66.362 7.29537 66.4683 7.57553 66.5367 7.86592C66.5986 8.13387 66.6368 8.40677 66.6505 8.6815C66.6608 8.94444 66.6682 9.17495 66.6682 9.37291V14.2115H64.7756V13.0591ZM64.6529 10.447H64.2098C63.9143 10.447 63.5907 10.4588 63.2288 10.4825C62.8823 10.5032 62.5388 10.5586 62.2034 10.6479C61.9091 10.723 61.6321 10.8545 61.3878 11.035C61.279 11.1173 61.1918 11.2248 61.1339 11.3485C61.0759 11.472 61.049 11.6079 61.0555 11.7442C61.0487 11.92 61.0945 12.0938 61.187 12.2435C61.2762 12.3798 61.3923 12.4965 61.5282 12.5863C61.6727 12.6807 61.8327 12.7488 62.001 12.7872C62.1733 12.8282 62.3498 12.849 62.527 12.8493C63.2519 12.8493 63.7867 12.6769 64.1314 12.3322C64.4761 11.9874 64.6485 11.5166 64.6485 10.9198L64.6529 10.447Z" fill="white"/>
<path d="M38.148 16.2314H40.0583L45.4051 28.6418H42.8816L41.7204 25.8036H36.3426L35.2197 28.6433H32.748L38.148 16.2314ZM40.955 23.914L39.0447 18.8642L37.096 23.9111L40.955 23.914Z" fill="white"/>
<path d="M47.0009 22.0169H45.2664V20.2292H47.0024V19.0369C46.9976 18.5055 47.0387 17.9746 47.125 17.4501C47.1917 17.0156 47.3499 16.6002 47.5889 16.2313C47.8262 15.8851 48.158 15.6143 48.5448 15.4512C49.0526 15.253 49.5957 15.161 50.1404 15.1809C50.5866 15.1775 51.032 15.2186 51.4701 15.3035L51.3312 17.0912C51.1834 17.0557 51.0357 17.0261 50.888 17.004C50.7415 16.9797 50.5932 16.9678 50.4448 16.9685C50.2033 16.9573 49.9629 17.0055 49.7445 17.1089C49.5758 17.1953 49.4335 17.3254 49.3323 17.4856C49.2286 17.6537 49.1626 17.8422 49.1387 18.0382C49.109 18.2585 49.0946 18.4807 49.0959 18.703V20.2292H51.0416V22.0169H49.1077V28.6431H47.0009V22.0169Z" fill="white"/>
<path d="M52.0618 20.2294H54.1656V21.559H54.1996C54.4141 21.0891 54.7619 20.6925 55.1998 20.4185C55.6478 20.1452 56.1644 20.0053 56.6891 20.0151C56.8155 20.0149 56.9416 20.0268 57.0658 20.0506C57.1884 20.0743 57.314 20.1038 57.4425 20.1377V22.181C57.2682 22.1338 57.0954 22.0968 56.9255 22.0673C56.7606 22.0381 56.5935 22.0232 56.4261 22.023C56.0147 22.004 55.6059 22.098 55.2441 22.2948C54.9744 22.4505 54.7416 22.6627 54.5616 22.9168C54.4134 23.129 54.3062 23.367 54.2454 23.6186C54.2013 23.7907 54.1751 23.967 54.1671 24.1445V28.6492H52.0618V20.2294Z" fill="white"/>
<path d="M58.2675 17.3718C58.2662 17.2061 58.299 17.0419 58.3638 16.8895C58.4286 16.737 58.5241 16.5994 58.6442 16.4854C58.7691 16.3602 58.9184 16.262 59.0829 16.197C59.2473 16.132 59.4233 16.1014 59.6001 16.1071C59.9584 16.0976 60.3067 16.2267 60.5722 16.4676C60.6966 16.5828 60.7957 16.7224 60.8636 16.8778C60.9314 17.0331 60.9664 17.2008 60.9664 17.3703C60.9664 17.5398 60.9314 17.7074 60.8636 17.8628C60.7957 18.0181 60.6966 18.1578 60.5722 18.273C60.3065 18.5135 59.9583 18.6421 59.6001 18.632C59.4235 18.6377 59.2476 18.6072 59.0832 18.5424C58.9188 18.4776 58.7694 18.3799 58.6442 18.2553C58.5245 18.1415 58.4293 18.0044 58.3645 17.8524C58.2997 17.7005 58.2667 17.5369 58.2675 17.3718ZM58.5629 20.2291H60.6668V28.6504H58.5703L58.5629 20.2291Z" fill="white"/>
<path d="M68.4935 22.7529C68.267 22.512 68.0065 22.3054 67.7207 22.1398C67.4711 21.9929 67.1873 21.9145 66.8978 21.9122C66.558 21.9048 66.2206 21.9698 65.9078 22.1027C65.5949 22.2357 65.314 22.4337 65.0835 22.6835C64.8672 22.9167 64.6999 23.191 64.5916 23.4901C64.3709 24.1017 64.3709 24.7711 64.5916 25.3827C64.6999 25.6818 64.8672 25.9561 65.0835 26.1893C65.314 26.4392 65.5949 26.637 65.9078 26.77C66.2206 26.903 66.558 26.9679 66.8978 26.9605C67.2129 26.9634 67.5246 26.8947 67.8094 26.7596C68.092 26.6225 68.3382 26.42 68.5274 26.1686L69.9312 27.6771C69.7149 27.8912 69.4694 28.0737 69.2029 28.2193C68.937 28.3671 68.6583 28.4907 68.3707 28.5887C68.1076 28.6772 67.8377 28.7443 67.5641 28.7896C67.344 28.8276 67.1212 28.8484 66.8978 28.8517C66.2877 28.855 65.6821 28.7478 65.1101 28.5355C64.5701 28.3412 64.0757 28.038 63.6579 27.6445C63.24 27.2511 62.9076 26.7759 62.6813 26.2484C62.2026 25.0858 62.2026 23.7811 62.6813 22.6184C62.9076 22.091 63.24 21.6158 63.6579 21.2224C64.0757 20.8289 64.5701 20.5256 65.1101 20.3314C65.6821 20.119 66.2877 20.0119 66.8978 20.0152C67.4537 20.0182 68.0045 20.1223 68.5226 20.3225C69.0693 20.5295 69.5589 20.8631 69.9516 21.2962L68.4935 22.7529Z" fill="white"/>
<path d="M76.0993 27.4863H76.0478C75.7724 27.9399 75.3696 28.3026 74.8894 28.5293C74.4052 28.7493 73.8789 28.8602 73.3472 28.8544C72.9647 28.8546 72.5843 28.8013 72.2167 28.6963C71.8634 28.5986 71.5311 28.4379 71.2347 28.222C70.9485 28.0132 70.7125 27.7438 70.543 27.4331C70.3612 27.0942 70.271 26.7139 70.2798 26.3294C70.2683 25.9269 70.3524 25.5274 70.5253 25.1638C70.6827 24.85 70.9071 24.5747 71.1825 24.3571C71.4707 24.1336 71.7942 23.9589 72.1387 23.84C72.5056 23.7083 72.884 23.6094 73.2686 23.5445C73.6599 23.4808 74.0546 23.4398 74.4506 23.4219C74.8447 23.4042 75.2183 23.3953 75.5724 23.3953H76.0979V23.1678C76.0979 22.6418 75.9169 22.2479 75.5547 21.9859C75.1471 21.7093 74.6622 21.571 74.1699 21.5914C73.7433 21.5884 73.3208 21.6687 72.9247 21.8278C72.5544 21.9765 72.2154 22.1941 71.9258 22.4689L70.8251 21.3683C71.2801 20.8967 71.8424 20.542 72.4636 20.3341C73.0875 20.1239 73.7419 20.0171 74.4005 20.0179C74.9111 20.006 75.4198 20.0743 75.9087 20.2203C76.2749 20.3326 76.6188 20.5076 76.9253 20.7374C77.1817 20.9329 77.3939 21.1807 77.5472 21.4644C77.689 21.727 77.7954 22.0072 77.8639 22.2976C77.9256 22.5655 77.9636 22.8384 77.9772 23.1132C77.988 23.3761 77.9948 23.6066 77.9948 23.8046V28.6431H76.0993V27.4863ZM75.9772 24.8742H75.5337C75.238 24.8742 74.9145 24.886 74.553 24.9097C74.2065 24.9302 73.8627 24.9862 73.5276 25.0766C73.2333 25.1505 72.9559 25.2816 72.7118 25.4622C72.6033 25.5446 72.5158 25.6521 72.4581 25.7757C72.3998 25.8993 72.3734 26.0351 72.3795 26.1713C72.3727 26.3472 72.4188 26.521 72.511 26.6708C72.5999 26.807 72.7165 26.9237 72.8522 27.0135C72.9966 27.108 73.1567 27.176 73.3249 27.2145C73.4971 27.2554 73.6741 27.2762 73.8511 27.2765C74.5768 27.2765 75.1119 27.1041 75.4557 26.7594C75.7989 26.4147 75.9718 25.9439 75.9725 25.347L75.9772 24.8742Z" fill="white"/>
</g>
</g>
<defs>
<clipPath id="clip0_1_291">
<rect width="78" height="29.84" fill="white" transform="translate(3.05176e-05 0.490234)"/>
</clipPath>
<clipPath id="clip1_1_291">
<rect width="77.9909" height="29.84" fill="white" transform="translate(0.00457764 0.490234)"/>
</clipPath>
</defs>
</svg>
