<svg width="461" height="173" viewBox="0 0 461 173" fill="none" xmlns="http://www.w3.org/2000/svg">
<g clip-path="url(#clip0_1_23)">
<g clip-path="url(#clip1_1_23)">
<path d="M239.763 152.287L239.763 152.287C237.559 155.396 238.293 159.703 241.402 161.906L246.7 165.661C249.809 167.865 254.116 167.13 256.319 164.021L256.319 164.021C258.523 160.912 257.789 156.605 254.68 154.402L249.382 150.647C246.273 148.444 241.966 149.178 239.763 152.287Z" fill="#16168D" stroke="#111111" stroke-width="2.23678"/>
<path d="M251.495 157.493C252.187 153.891 249.828 150.411 246.227 149.719C242.625 149.027 239.145 151.385 238.453 154.987C237.761 158.588 240.119 162.069 243.721 162.761C247.322 163.453 250.803 161.094 251.495 157.493Z" fill="white" stroke="#111111" stroke-width="2.09699"/>
<path d="M3.66558 54.2259C6.01436 55.6601 9.08111 54.9187 10.5154 52.57C11.9496 50.2212 11.2082 47.1544 8.85947 45.7202C6.51069 44.2859 3.44394 45.0273 2.00968 47.3761C0.575432 49.7249 1.3168 52.7916 3.66558 54.2259Z" fill="white" stroke="#111111" stroke-width="2.05345"/>
<path d="M450.488 19.1802C453.341 17.9534 454.659 14.6459 453.432 11.7927C452.206 8.93951 448.898 7.62104 446.045 8.84783L441.446 10.825C438.593 12.0518 437.275 15.3593 438.502 18.2125C439.728 21.0657 443.036 22.3842 445.889 21.1574L450.488 19.1802Z" fill="#F0B73F" stroke="#111111" stroke-width="2.05345"/>
<path d="M444.914 17.9648C447.138 19.987 450.58 19.8236 452.602 17.5999C454.624 15.3761 454.461 11.9341 452.237 9.91189C450.013 7.88968 446.571 8.05308 444.549 10.2768C442.527 12.5006 442.69 15.9426 444.914 17.9648Z" fill="white" stroke="#111111" stroke-width="2.05345"/>
</g>
</g>
<defs>
<clipPath id="clip0_1_23">
<rect width="460.8" height="172.49" fill="white" transform="translate(3.05176e-05 0.179993)"/>
</clipPath>
<clipPath id="clip1_1_23">
<rect width="460.795" height="172.49" fill="white" transform="translate(0.00268555 0.179993)"/>
</clipPath>
</defs>
</svg>
