<svg width="20" height="21" viewBox="0 0 20 21" fill="none" xmlns="http://www.w3.org/2000/svg">
<g clip-path="url(#clip0_1_321)">
<g clip-path="url(#clip1_1_321)">
<path fill-rule="evenodd" clip-rule="evenodd" d="M5.18407 1.8598C5.99865 1.8223 6.25838 1.81396 8.33337 1.81396C10.4084 1.81396 10.6681 1.82299 11.482 1.8598C12.2959 1.8966 12.8515 2.02646 13.3375 2.21466C13.8465 2.40701 14.3084 2.70771 14.6903 3.0966C15.0792 3.47785 15.3792 3.93896 15.5709 4.44868C15.7598 4.9348 15.889 5.49035 15.9265 6.30285C15.964 7.11882 15.9723 7.37855 15.9723 9.45286C15.9723 11.5279 15.9632 11.7876 15.9265 12.6022C15.8896 13.4147 15.7598 13.9702 15.5709 14.4564C15.3792 14.9661 15.0787 15.428 14.6903 15.8098C14.3084 16.1987 13.8465 16.4987 13.3375 16.6904C12.8515 16.8793 12.2959 17.0084 11.4834 17.0459C10.6681 17.0834 10.4084 17.0918 8.33337 17.0918C6.25838 17.0918 5.99865 17.0827 5.18407 17.0459C4.37157 17.0091 3.81602 16.8793 3.3299 16.6904C2.82013 16.4987 2.35825 16.1982 1.97644 15.8098C1.58781 15.4283 1.28707 14.9667 1.09519 14.457C0.906985 13.9709 0.777821 13.4154 0.740321 12.6029C0.702821 11.7869 0.694489 11.5272 0.694489 9.45286C0.694489 7.37785 0.703516 7.11813 0.740321 6.30424C0.777127 5.49035 0.906985 4.9348 1.09519 4.44868C1.28735 3.93902 1.58832 3.47737 1.97713 3.09591C2.3584 2.70736 2.81982 2.40663 3.32921 2.21466C3.81532 2.02646 4.37157 1.8973 5.18407 1.8598ZM11.4202 3.2348C10.6146 3.19799 10.373 3.19035 8.33337 3.19035C6.29379 3.19035 6.05213 3.19799 5.24657 3.2348C4.50144 3.26882 4.09727 3.39313 3.82782 3.49799C3.47157 3.63688 3.21671 3.80146 2.94935 4.06882C2.69591 4.31539 2.50086 4.61555 2.37852 4.9473C2.27365 5.21674 2.14935 5.62091 2.11532 6.36605C2.07852 7.1716 2.07088 7.41326 2.07088 9.45286C2.07088 11.4924 2.07852 11.7341 2.11532 12.5397C2.14935 13.2848 2.27365 13.6889 2.37852 13.9584C2.50074 14.2897 2.69588 14.5904 2.94935 14.8369C3.19588 15.0904 3.49657 15.2855 3.82782 15.4077C4.09727 15.5126 4.50144 15.6369 5.24657 15.6709C6.05213 15.7077 6.2931 15.7154 8.33337 15.7154C10.3736 15.7154 10.6146 15.7077 11.4202 15.6709C12.1653 15.6369 12.5695 15.5126 12.839 15.4077C13.1952 15.2689 13.45 15.1043 13.7174 14.8369C13.9709 14.5904 14.166 14.2897 14.2882 13.9584C14.3931 13.6889 14.5174 13.2848 14.5515 12.5397C14.5882 11.7341 14.5959 11.4924 14.5959 9.45286C14.5959 7.41326 14.5882 7.1716 14.5515 6.36605C14.5174 5.62091 14.3931 5.21674 14.2882 4.9473C14.1494 4.59105 13.9848 4.33618 13.7174 4.06882C13.4709 3.8154 13.1707 3.62036 12.839 3.49799C12.5695 3.39313 12.1653 3.26882 11.4202 3.2348ZM7.35769 11.8077C7.90259 12.0345 8.50937 12.0651 9.07428 11.8944C9.63929 11.7235 10.1274 11.3618 10.4554 10.8711C10.7833 10.3804 10.9306 9.79095 10.8723 9.20362C10.814 8.61628 10.5535 8.06742 10.1355 7.65076C9.86895 7.38443 9.5467 7.1805 9.19195 7.05365C8.8372 6.9268 8.4587 6.88018 8.08372 6.91716C7.70877 6.95415 7.34668 7.07381 7.02352 7.26752C6.70036 7.46124 6.42417 7.7242 6.21484 8.03747C6.0055 8.35074 5.86823 8.70653 5.8129 9.0792C5.75758 9.45187 5.78557 9.8322 5.89486 10.1928C6.00416 10.5534 6.19204 10.8852 6.44499 11.1644C6.69794 11.4437 7.00964 11.6634 7.35769 11.8077ZM5.55699 6.67646C5.92159 6.31186 6.35443 6.02265 6.83081 5.82532C7.30718 5.62801 7.81775 5.52645 8.33337 5.52645C8.84904 5.52645 9.35953 5.62801 9.83595 5.82532C10.3123 6.02265 10.7452 6.31186 11.1098 6.67646C11.4744 7.04106 11.7636 7.47391 11.9609 7.95028C12.1582 8.42666 12.2598 8.9372 12.2598 9.45286C12.2598 9.96845 12.1582 10.479 11.9609 10.9554C11.7636 11.4318 11.4744 11.8646 11.1098 12.2293C10.3735 12.9656 9.3747 13.3793 8.33337 13.3793C7.29203 13.3793 6.29334 12.9656 5.55699 12.2293C4.82064 11.4929 4.40697 10.4942 4.40697 9.45286C4.40697 8.41151 4.82064 7.41281 5.55699 6.67646ZM13.1306 6.11118C13.221 6.02596 13.2933 5.92346 13.3433 5.80978C13.3934 5.69609 13.42 5.57352 13.4219 5.44933C13.4237 5.32514 13.4005 5.20184 13.3539 5.08675C13.3071 4.97165 13.2379 4.8671 13.15 4.77926C13.0622 4.69144 12.9576 4.62213 12.8425 4.57543C12.7275 4.52874 12.6041 4.50561 12.48 4.50742C12.3558 4.50923 12.2332 4.53595 12.1195 4.58597C12.0058 4.63601 11.9034 4.70833 11.8181 4.79868C11.6524 4.9744 11.5616 5.2078 11.5651 5.44933C11.5686 5.69086 11.6661 5.92151 11.837 6.09232C12.0078 6.26313 12.2385 6.36065 12.48 6.36417C12.7215 6.36769 12.9549 6.27694 13.1306 6.11118Z" fill="white"/>
</g>
</g>
<defs>
<clipPath id="clip0_1_321">
<rect width="20" height="20" fill="white" transform="translate(3.05176e-05 0.330078)"/>
</clipPath>
<clipPath id="clip1_1_321">
<rect width="16.6667" height="17.5" fill="white" transform="translate(3.05176e-05 0.330078)"/>
</clipPath>
</defs>
</svg>
