<svg width="20" height="21" viewBox="0 0 20 21" fill="none" xmlns="http://www.w3.org/2000/svg">
<g clip-path="url(#clip0_1_310)">
<g clip-path="url(#clip1_1_310)">
<path fill-rule="evenodd" clip-rule="evenodd" d="M0.694458 3.09036C0.694458 2.75183 0.828935 2.42718 1.06831 2.18781C1.30767 1.94844 1.63233 1.81397 1.97085 1.81397H14.6944C14.8622 1.81369 15.0284 1.84651 15.1834 1.91054C15.3385 1.97457 15.4794 2.06856 15.5981 2.18712C15.7168 2.30567 15.8109 2.44648 15.8751 2.60147C15.9394 2.75647 15.9724 2.92259 15.9722 3.09036V15.8139C15.9724 15.9818 15.9395 16.148 15.8754 16.303C15.8113 16.458 15.7173 16.5989 15.5986 16.7176C15.48 16.8364 15.3392 16.9304 15.1841 16.9946C15.0291 17.0589 14.8629 17.0919 14.6951 17.0918H1.97085C1.80317 17.0918 1.63714 17.0587 1.48223 16.9945C1.32733 16.9304 1.18659 16.8363 1.06806 16.7176C0.949522 16.599 0.855522 16.4583 0.791418 16.3034C0.727315 16.1484 0.694367 15.9824 0.694458 15.8147V3.09036ZM6.74168 7.63897H8.81045V8.67787C9.10903 8.08063 9.87295 7.54313 11.0209 7.54313C13.2215 7.54313 13.743 8.7327 13.743 10.9154V14.9584H11.5159V11.4126C11.5159 10.1695 11.2174 9.46812 10.459 9.46812C9.40695 9.46812 8.96945 10.2244 8.96945 11.4126V14.9584H6.74168V7.63897ZM2.92224 14.8633H5.15001V7.54313H2.92224V14.8633ZM5.46876 5.15563C5.47296 5.34637 5.43902 5.53604 5.36893 5.71349C5.29884 5.89094 5.19401 6.0526 5.06059 6.18899C4.92717 6.32537 4.76786 6.43374 4.592 6.50772C4.41613 6.5817 4.22726 6.61981 4.03647 6.61981C3.84568 6.61981 3.65681 6.5817 3.48095 6.50772C3.30508 6.43374 3.14577 6.32537 3.01236 6.18899C2.87894 6.0526 2.77411 5.89094 2.70401 5.71349C2.63392 5.53604 2.59998 5.34637 2.60418 5.15563C2.61242 4.78122 2.76695 4.42493 3.03466 4.16305C3.30236 3.90118 3.66197 3.75453 4.03647 3.75453C4.41097 3.75453 4.77058 3.90118 5.03829 4.16305C5.306 4.42493 5.46052 4.78122 5.46876 5.15563Z" fill="white"/>
</g>
</g>
<defs>
<clipPath id="clip0_1_310">
<rect width="20" height="20" fill="white" transform="translate(3.05176e-05 0.330078)"/>
</clipPath>
<clipPath id="clip1_1_310">
<rect width="16.6667" height="17.5" fill="white" transform="translate(3.05176e-05 0.330078)"/>
</clipPath>
</defs>
</svg>
