<svg width="36" height="37" viewBox="0 0 36 37" fill="none" xmlns="http://www.w3.org/2000/svg">
<path fill-rule="evenodd" clip-rule="evenodd" d="M5.625 26.0727C5.625 25.4514 6.12868 24.9477 6.75 24.9477H29.25C29.8713 24.9477 30.375 25.4514 30.375 26.0727C30.375 26.694 29.8713 27.1977 29.25 27.1977H6.75C6.12868 27.1977 5.625 26.694 5.625 26.0727Z" fill="black"/>
<path fill-rule="evenodd" clip-rule="evenodd" d="M5.625 17.0727C5.625 16.4514 6.12868 15.9477 6.75 15.9477H29.25C29.8713 15.9477 30.375 16.4514 30.375 17.0727C30.375 17.694 29.8713 18.1977 29.25 18.1977H6.75C6.12868 18.1977 5.625 17.694 5.625 17.0727Z" fill="black"/>
<path fill-rule="evenodd" clip-rule="evenodd" d="M5.625 8.07269C5.625 7.45137 6.12868 6.94769 6.75 6.94769H29.25C29.8713 6.94769 30.375 7.45137 30.375 8.07269C30.375 8.69401 29.8713 9.19769 29.25 9.19769H6.75C6.12868 9.19769 5.625 8.69401 5.625 8.07269Z" fill="black"/>
</svg>
