<svg width="20" height="21" viewBox="0 0 20 21" fill="none" xmlns="http://www.w3.org/2000/svg">
<g clip-path="url(#clip0_1_316)">
<g clip-path="url(#clip1_1_316)">
<path d="M16.4188 4.54784C15.8389 4.80479 15.216 4.9784 14.5611 5.05687C15.2369 4.65256 15.7424 4.01622 15.9834 3.2666C15.3485 3.64367 14.6537 3.90909 13.9292 4.05131C13.4419 3.53108 12.7966 3.18626 12.0933 3.0704C11.39 2.95452 10.6681 3.07409 10.0398 3.41052C9.41136 3.74695 8.91169 4.28143 8.61819 4.93097C8.32469 5.58051 8.25386 6.30878 8.41669 7.0027C7.13035 6.93812 5.87198 6.60378 4.72323 6.02139C3.57448 5.439 2.56102 4.62156 1.74863 3.62215C1.47085 4.10131 1.31113 4.65687 1.31113 5.24854C1.31082 5.78117 1.44198 6.30565 1.69298 6.77544C1.94399 7.24522 2.30708 7.64579 2.75002 7.9416C2.23632 7.92525 1.73396 7.78645 1.28474 7.53673V7.5784C1.28468 8.32544 1.54309 9.0495 2.01612 9.62766C2.48913 10.2059 3.14763 10.6027 3.87988 10.7506C3.40334 10.8796 2.90373 10.8986 2.41877 10.8062C2.62536 11.449 3.02779 12.0111 3.56972 12.4137C4.11164 12.8165 4.76593 13.0397 5.44099 13.052C4.29504 13.9516 2.8798 14.4396 1.42293 14.4374C1.16487 14.4375 0.907017 14.4224 0.650711 14.3922C2.12952 15.3431 3.85095 15.8477 5.60904 15.8457C11.5604 15.8457 14.8139 10.9166 14.8139 6.6416C14.8139 6.5027 14.8104 6.36242 14.8042 6.22354C15.437 5.76588 15.9833 5.19915 16.4174 4.54993L16.4188 4.54784Z" fill="white"/>
</g>
</g>
<defs>
<clipPath id="clip0_1_316">
<rect width="20" height="20" fill="white" transform="translate(3.05176e-05 0.330078)"/>
</clipPath>
<clipPath id="clip1_1_316">
<rect width="16.6667" height="17.5" fill="white" transform="translate(3.05176e-05 0.330078)"/>
</clipPath>
</defs>
</svg>
